<mxfile host="app.diagrams.net" agent="Mozilla/5.0 (Windows NT 10.0; Win64; x64) AppleWebKit/537.36 (KHTML, like Gecko) Chrome/141.0.0.0 Safari/537.36 Edg/141.0.0.0" version="28.2.7">
  <diagram name="Seite-1" id="TUtZQGfGFjxGehgHGvSj">
    <mxGraphModel dx="1681" dy="914" grid="1" gridSize="10" guides="1" tooltips="1" connect="1" arrows="1" fold="1" page="1" pageScale="1" pageWidth="1169" pageHeight="827" math="0" shadow="0">
      <root>
        <mxCell id="0" />
        <mxCell id="1" parent="0" />
        <mxCell id="rjWYwIjSMc28cupWhfTH-5" value="[123]" style="edgeStyle=orthogonalEdgeStyle;rounded=0;orthogonalLoop=1;jettySize=auto;html=1;entryX=0;entryY=0.5;entryDx=0;entryDy=0;" edge="1" parent="1" source="rjWYwIjSMc28cupWhfTH-1" target="rjWYwIjSMc28cupWhfTH-18">
          <mxGeometry relative="1" as="geometry">
            <mxPoint x="370" y="384" as="targetPoint" />
          </mxGeometry>
        </mxCell>
        <mxCell id="rjWYwIjSMc28cupWhfTH-1" value="q0" style="ellipse;whiteSpace=wrap;html=1;aspect=fixed;" vertex="1" parent="1">
          <mxGeometry x="250" y="458" width="80" height="80" as="geometry" />
        </mxCell>
        <mxCell id="rjWYwIjSMc28cupWhfTH-6" value="&lt;math style=&quot;color: rgb(240, 246, 252); text-align: start; background-color: rgb(13, 17, 23);&quot; xmlns=&quot;http://www.w3.org/1998/Math/MathML&quot;&gt;&lt;mi mathvariant=&quot;normal&quot;&gt;&lt;font style=&quot;color: rgb(0, 0, 0); background-color: rgb(255, 255, 255);&quot;&gt;Î£: {1, 2, 3}&lt;/font&gt;&lt;/mi&gt;&lt;/math&gt;" style="rounded=0;whiteSpace=wrap;html=1;" vertex="1" parent="1">
          <mxGeometry x="310" y="289" width="120" height="90" as="geometry" />
        </mxCell>
        <mxCell id="rjWYwIjSMc28cupWhfTH-20" style="edgeStyle=orthogonalEdgeStyle;rounded=0;orthogonalLoop=1;jettySize=auto;html=1;entryX=0;entryY=0.5;entryDx=0;entryDy=0;" edge="1" parent="1" source="rjWYwIjSMc28cupWhfTH-18" target="rjWYwIjSMc28cupWhfTH-19">
          <mxGeometry relative="1" as="geometry" />
        </mxCell>
        <mxCell id="rjWYwIjSMc28cupWhfTH-21" value="2" style="edgeLabel;html=1;align=center;verticalAlign=middle;resizable=0;points=[];" vertex="1" connectable="0" parent="rjWYwIjSMc28cupWhfTH-20">
          <mxGeometry x="-0.2" relative="1" as="geometry">
            <mxPoint as="offset" />
          </mxGeometry>
        </mxCell>
        <mxCell id="rjWYwIjSMc28cupWhfTH-44" style="rounded=0;orthogonalLoop=1;jettySize=auto;html=1;exitX=1;exitY=1;exitDx=0;exitDy=0;entryX=0;entryY=0;entryDx=0;entryDy=0;" edge="1" parent="1" source="rjWYwIjSMc28cupWhfTH-18" target="rjWYwIjSMc28cupWhfTH-40">
          <mxGeometry relative="1" as="geometry" />
        </mxCell>
        <mxCell id="rjWYwIjSMc28cupWhfTH-46" value="3" style="edgeLabel;html=1;align=center;verticalAlign=middle;resizable=0;points=[];" vertex="1" connectable="0" parent="rjWYwIjSMc28cupWhfTH-44">
          <mxGeometry x="-0.1335" y="1" relative="1" as="geometry">
            <mxPoint as="offset" />
          </mxGeometry>
        </mxCell>
        <mxCell id="rjWYwIjSMc28cupWhfTH-47" style="rounded=0;orthogonalLoop=1;jettySize=auto;html=1;exitX=1;exitY=0;exitDx=0;exitDy=0;entryX=0;entryY=1;entryDx=0;entryDy=0;" edge="1" parent="1" source="rjWYwIjSMc28cupWhfTH-18" target="rjWYwIjSMc28cupWhfTH-41">
          <mxGeometry relative="1" as="geometry" />
        </mxCell>
        <mxCell id="rjWYwIjSMc28cupWhfTH-50" value="1" style="edgeLabel;html=1;align=center;verticalAlign=middle;resizable=0;points=[];" vertex="1" connectable="0" parent="rjWYwIjSMc28cupWhfTH-47">
          <mxGeometry x="-0.0147" relative="1" as="geometry">
            <mxPoint as="offset" />
          </mxGeometry>
        </mxCell>
        <mxCell id="rjWYwIjSMc28cupWhfTH-18" value="q1" style="ellipse;whiteSpace=wrap;html=1;aspect=fixed;" vertex="1" parent="1">
          <mxGeometry x="380" y="458" width="80" height="80" as="geometry" />
        </mxCell>
        <mxCell id="rjWYwIjSMc28cupWhfTH-79" style="edgeStyle=orthogonalEdgeStyle;rounded=0;orthogonalLoop=1;jettySize=auto;html=1;entryX=0;entryY=0.5;entryDx=0;entryDy=0;" edge="1" parent="1" source="rjWYwIjSMc28cupWhfTH-19" target="rjWYwIjSMc28cupWhfTH-78">
          <mxGeometry relative="1" as="geometry" />
        </mxCell>
        <mxCell id="rjWYwIjSMc28cupWhfTH-113" value="[123]" style="edgeLabel;html=1;align=center;verticalAlign=middle;resizable=0;points=[];" vertex="1" connectable="0" parent="rjWYwIjSMc28cupWhfTH-79">
          <mxGeometry x="0.0038" y="1" relative="1" as="geometry">
            <mxPoint as="offset" />
          </mxGeometry>
        </mxCell>
        <mxCell id="rjWYwIjSMc28cupWhfTH-19" value="q8" style="ellipse;whiteSpace=wrap;html=1;aspect=fixed;" vertex="1" parent="1">
          <mxGeometry x="520" y="458" width="80" height="80" as="geometry" />
        </mxCell>
        <mxCell id="rjWYwIjSMc28cupWhfTH-45" style="edgeStyle=orthogonalEdgeStyle;rounded=0;orthogonalLoop=1;jettySize=auto;html=1;entryX=0;entryY=0.5;entryDx=0;entryDy=0;" edge="1" parent="1" source="rjWYwIjSMc28cupWhfTH-40" target="rjWYwIjSMc28cupWhfTH-43">
          <mxGeometry relative="1" as="geometry" />
        </mxCell>
        <mxCell id="rjWYwIjSMc28cupWhfTH-147" value="[123]" style="edgeLabel;html=1;align=center;verticalAlign=middle;resizable=0;points=[];" vertex="1" connectable="0" parent="rjWYwIjSMc28cupWhfTH-45">
          <mxGeometry x="-0.152" y="-1" relative="1" as="geometry">
            <mxPoint as="offset" />
          </mxGeometry>
        </mxCell>
        <mxCell id="rjWYwIjSMc28cupWhfTH-40" value="q14" style="ellipse;whiteSpace=wrap;html=1;aspect=fixed;" vertex="1" parent="1">
          <mxGeometry x="520" y="704" width="80" height="80" as="geometry" />
        </mxCell>
        <mxCell id="rjWYwIjSMc28cupWhfTH-62" style="edgeStyle=orthogonalEdgeStyle;rounded=0;orthogonalLoop=1;jettySize=auto;html=1;" edge="1" parent="1" source="rjWYwIjSMc28cupWhfTH-41" target="rjWYwIjSMc28cupWhfTH-59">
          <mxGeometry relative="1" as="geometry" />
        </mxCell>
        <mxCell id="rjWYwIjSMc28cupWhfTH-109" value="[123]" style="edgeLabel;html=1;align=center;verticalAlign=middle;resizable=0;points=[];" vertex="1" connectable="0" parent="rjWYwIjSMc28cupWhfTH-62">
          <mxGeometry x="-0.0533" y="1" relative="1" as="geometry">
            <mxPoint as="offset" />
          </mxGeometry>
        </mxCell>
        <mxCell id="rjWYwIjSMc28cupWhfTH-41" value="q2" style="ellipse;whiteSpace=wrap;html=1;aspect=fixed;" vertex="1" parent="1">
          <mxGeometry x="520" y="214" width="80" height="80" as="geometry" />
        </mxCell>
        <mxCell id="rjWYwIjSMc28cupWhfTH-76" style="rounded=0;orthogonalLoop=1;jettySize=auto;html=1;exitX=1;exitY=0.5;exitDx=0;exitDy=0;entryX=0;entryY=0.5;entryDx=0;entryDy=0;" edge="1" parent="1" source="rjWYwIjSMc28cupWhfTH-65" target="rjWYwIjSMc28cupWhfTH-72">
          <mxGeometry relative="1" as="geometry" />
        </mxCell>
        <mxCell id="rjWYwIjSMc28cupWhfTH-77" value="[23]" style="edgeLabel;html=1;align=center;verticalAlign=middle;resizable=0;points=[];" vertex="1" connectable="0" parent="rjWYwIjSMc28cupWhfTH-76">
          <mxGeometry x="0.0232" y="2" relative="1" as="geometry">
            <mxPoint as="offset" />
          </mxGeometry>
        </mxCell>
        <mxCell id="rjWYwIjSMc28cupWhfTH-65" value="q4" style="ellipse;whiteSpace=wrap;html=1;aspect=fixed;" vertex="1" parent="1">
          <mxGeometry x="770" y="214" width="80" height="80" as="geometry" />
        </mxCell>
        <mxCell id="rjWYwIjSMc28cupWhfTH-66" value="" style="group" vertex="1" connectable="0" parent="1">
          <mxGeometry x="650" y="214" width="80" height="80" as="geometry" />
        </mxCell>
        <mxCell id="rjWYwIjSMc28cupWhfTH-59" value="" style="ellipse;whiteSpace=wrap;html=1;aspect=fixed;" vertex="1" parent="rjWYwIjSMc28cupWhfTH-66">
          <mxGeometry width="80" height="80" as="geometry" />
        </mxCell>
        <mxCell id="rjWYwIjSMc28cupWhfTH-64" value="q3" style="ellipse;whiteSpace=wrap;html=1;aspect=fixed;" vertex="1" parent="rjWYwIjSMc28cupWhfTH-66">
          <mxGeometry x="5" y="5" width="70" height="70" as="geometry" />
        </mxCell>
        <mxCell id="rjWYwIjSMc28cupWhfTH-68" style="edgeStyle=orthogonalEdgeStyle;rounded=0;orthogonalLoop=1;jettySize=auto;html=1;entryX=0;entryY=0.5;entryDx=0;entryDy=0;" edge="1" parent="1" source="rjWYwIjSMc28cupWhfTH-59" target="rjWYwIjSMc28cupWhfTH-65">
          <mxGeometry relative="1" as="geometry" />
        </mxCell>
        <mxCell id="rjWYwIjSMc28cupWhfTH-69" value="1" style="edgeLabel;html=1;align=center;verticalAlign=middle;resizable=0;points=[];" vertex="1" connectable="0" parent="rjWYwIjSMc28cupWhfTH-68">
          <mxGeometry x="0.0154" y="-3" relative="1" as="geometry">
            <mxPoint y="-3" as="offset" />
          </mxGeometry>
        </mxCell>
        <mxCell id="rjWYwIjSMc28cupWhfTH-111" style="rounded=0;orthogonalLoop=1;jettySize=auto;html=1;exitX=0;exitY=1;exitDx=0;exitDy=0;entryX=1;entryY=1;entryDx=0;entryDy=0;curved=1;" edge="1" parent="1" source="rjWYwIjSMc28cupWhfTH-72" target="rjWYwIjSMc28cupWhfTH-65">
          <mxGeometry relative="1" as="geometry">
            <Array as="points">
              <mxPoint x="880" y="294" />
            </Array>
          </mxGeometry>
        </mxCell>
        <mxCell id="rjWYwIjSMc28cupWhfTH-112" value="1" style="edgeLabel;html=1;align=center;verticalAlign=middle;resizable=0;points=[];" vertex="1" connectable="0" parent="rjWYwIjSMc28cupWhfTH-111">
          <mxGeometry y="1" relative="1" as="geometry">
            <mxPoint as="offset" />
          </mxGeometry>
        </mxCell>
        <mxCell id="rjWYwIjSMc28cupWhfTH-72" value="" style="ellipse;whiteSpace=wrap;html=1;aspect=fixed;" vertex="1" parent="1">
          <mxGeometry x="900" y="214" width="80" height="80" as="geometry" />
        </mxCell>
        <mxCell id="rjWYwIjSMc28cupWhfTH-83" style="edgeStyle=orthogonalEdgeStyle;rounded=0;orthogonalLoop=1;jettySize=auto;html=1;entryX=0;entryY=0.5;entryDx=0;entryDy=0;" edge="1" parent="1" source="rjWYwIjSMc28cupWhfTH-78" target="rjWYwIjSMc28cupWhfTH-82">
          <mxGeometry relative="1" as="geometry" />
        </mxCell>
        <mxCell id="rjWYwIjSMc28cupWhfTH-84" value="2" style="edgeLabel;html=1;align=center;verticalAlign=middle;resizable=0;points=[];" vertex="1" connectable="0" parent="rjWYwIjSMc28cupWhfTH-83">
          <mxGeometry x="-0.2154" relative="1" as="geometry">
            <mxPoint as="offset" />
          </mxGeometry>
        </mxCell>
        <mxCell id="rjWYwIjSMc28cupWhfTH-119" style="rounded=0;orthogonalLoop=1;jettySize=auto;html=1;exitX=1;exitY=0;exitDx=0;exitDy=0;entryX=0;entryY=1;entryDx=0;entryDy=0;" edge="1" parent="1" source="rjWYwIjSMc28cupWhfTH-78" target="rjWYwIjSMc28cupWhfTH-118">
          <mxGeometry relative="1" as="geometry" />
        </mxCell>
        <mxCell id="rjWYwIjSMc28cupWhfTH-124" value="[13]" style="edgeLabel;html=1;align=center;verticalAlign=middle;resizable=0;points=[];" vertex="1" connectable="0" parent="rjWYwIjSMc28cupWhfTH-119">
          <mxGeometry x="-0.0938" y="1" relative="1" as="geometry">
            <mxPoint y="-1" as="offset" />
          </mxGeometry>
        </mxCell>
        <mxCell id="rjWYwIjSMc28cupWhfTH-78" value="q6" style="ellipse;whiteSpace=wrap;html=1;aspect=fixed;" vertex="1" parent="1">
          <mxGeometry x="650" y="458" width="80" height="80" as="geometry" />
        </mxCell>
        <mxCell id="rjWYwIjSMc28cupWhfTH-133" style="edgeStyle=orthogonalEdgeStyle;rounded=0;orthogonalLoop=1;jettySize=auto;html=1;entryX=0;entryY=0.5;entryDx=0;entryDy=0;" edge="1" parent="1" source="rjWYwIjSMc28cupWhfTH-82" target="rjWYwIjSMc28cupWhfTH-131">
          <mxGeometry relative="1" as="geometry">
            <mxPoint x="900" y="498" as="targetPoint" />
          </mxGeometry>
        </mxCell>
        <mxCell id="rjWYwIjSMc28cupWhfTH-141" value="[13]" style="edgeLabel;html=1;align=center;verticalAlign=middle;resizable=0;points=[];" vertex="1" connectable="0" parent="rjWYwIjSMc28cupWhfTH-133">
          <mxGeometry x="0.12" relative="1" as="geometry">
            <mxPoint as="offset" />
          </mxGeometry>
        </mxCell>
        <mxCell id="rjWYwIjSMc28cupWhfTH-82" value="q10" style="ellipse;whiteSpace=wrap;html=1;aspect=fixed;" vertex="1" parent="1">
          <mxGeometry x="770" y="458" width="80" height="80" as="geometry" />
        </mxCell>
        <mxCell id="rjWYwIjSMc28cupWhfTH-99" style="edgeStyle=orthogonalEdgeStyle;rounded=0;orthogonalLoop=1;jettySize=auto;html=1;" edge="1" parent="1" source="rjWYwIjSMc28cupWhfTH-85" target="rjWYwIjSMc28cupWhfTH-65">
          <mxGeometry relative="1" as="geometry" />
        </mxCell>
        <mxCell id="rjWYwIjSMc28cupWhfTH-100" value="1" style="edgeLabel;html=1;align=center;verticalAlign=middle;resizable=0;points=[];" vertex="1" connectable="0" parent="rjWYwIjSMc28cupWhfTH-99">
          <mxGeometry x="-0.1167" y="-1" relative="1" as="geometry">
            <mxPoint as="offset" />
          </mxGeometry>
        </mxCell>
        <mxCell id="rjWYwIjSMc28cupWhfTH-85" value="q5" style="ellipse;whiteSpace=wrap;html=1;aspect=fixed;" vertex="1" parent="1">
          <mxGeometry x="770" y="94" width="80" height="80" as="geometry" />
        </mxCell>
        <mxCell id="rjWYwIjSMc28cupWhfTH-86" style="rounded=0;orthogonalLoop=1;jettySize=auto;html=1;exitX=1;exitY=0;exitDx=0;exitDy=0;entryX=0;entryY=1;entryDx=0;entryDy=0;" edge="1" parent="1" source="rjWYwIjSMc28cupWhfTH-59" target="rjWYwIjSMc28cupWhfTH-85">
          <mxGeometry relative="1" as="geometry" />
        </mxCell>
        <mxCell id="rjWYwIjSMc28cupWhfTH-89" value="[23]" style="edgeLabel;html=1;align=center;verticalAlign=middle;resizable=0;points=[];" vertex="1" connectable="0" parent="rjWYwIjSMc28cupWhfTH-86">
          <mxGeometry x="-0.1079" y="-1" relative="1" as="geometry">
            <mxPoint as="offset" />
          </mxGeometry>
        </mxCell>
        <mxCell id="rjWYwIjSMc28cupWhfTH-87" style="rounded=0;orthogonalLoop=1;jettySize=auto;html=1;exitX=0;exitY=0;exitDx=0;exitDy=0;entryX=1;entryY=0;entryDx=0;entryDy=0;curved=1;" edge="1" parent="1" source="rjWYwIjSMc28cupWhfTH-85" target="rjWYwIjSMc28cupWhfTH-85">
          <mxGeometry relative="1" as="geometry">
            <Array as="points">
              <mxPoint x="810" y="44" />
            </Array>
          </mxGeometry>
        </mxCell>
        <mxCell id="rjWYwIjSMc28cupWhfTH-88" value="[23]" style="edgeLabel;html=1;align=center;verticalAlign=middle;resizable=0;points=[];" vertex="1" connectable="0" parent="rjWYwIjSMc28cupWhfTH-87">
          <mxGeometry x="-0.3767" y="-11" relative="1" as="geometry">
            <mxPoint as="offset" />
          </mxGeometry>
        </mxCell>
        <mxCell id="rjWYwIjSMc28cupWhfTH-95" value="q6" style="ellipse;whiteSpace=wrap;html=1;aspect=fixed;" vertex="1" parent="1">
          <mxGeometry x="905" y="219" width="70" height="70" as="geometry" />
        </mxCell>
        <mxCell id="rjWYwIjSMc28cupWhfTH-105" style="edgeStyle=orthogonalEdgeStyle;rounded=0;orthogonalLoop=1;jettySize=auto;html=1;entryX=0.5;entryY=0;entryDx=0;entryDy=0;" edge="1" parent="1" source="rjWYwIjSMc28cupWhfTH-98" target="rjWYwIjSMc28cupWhfTH-72">
          <mxGeometry relative="1" as="geometry" />
        </mxCell>
        <mxCell id="rjWYwIjSMc28cupWhfTH-106" value="[23]" style="edgeLabel;html=1;align=center;verticalAlign=middle;resizable=0;points=[];" vertex="1" connectable="0" parent="rjWYwIjSMc28cupWhfTH-105">
          <mxGeometry x="-0.0833" relative="1" as="geometry">
            <mxPoint as="offset" />
          </mxGeometry>
        </mxCell>
        <mxCell id="rjWYwIjSMc28cupWhfTH-98" value="" style="ellipse;whiteSpace=wrap;html=1;aspect=fixed;" vertex="1" parent="1">
          <mxGeometry x="900" y="94" width="80" height="80" as="geometry" />
        </mxCell>
        <mxCell id="rjWYwIjSMc28cupWhfTH-101" style="rounded=0;orthogonalLoop=1;jettySize=auto;html=1;exitX=1;exitY=0;exitDx=0;exitDy=0;entryX=0.1;entryY=0.8;entryDx=0;entryDy=0;entryPerimeter=0;curved=0;" edge="1" parent="1" source="rjWYwIjSMc28cupWhfTH-65" target="rjWYwIjSMc28cupWhfTH-98">
          <mxGeometry relative="1" as="geometry" />
        </mxCell>
        <mxCell id="rjWYwIjSMc28cupWhfTH-102" value="1" style="edgeLabel;html=1;align=center;verticalAlign=middle;resizable=0;points=[];" vertex="1" connectable="0" parent="rjWYwIjSMc28cupWhfTH-101">
          <mxGeometry x="-0.0193" y="2" relative="1" as="geometry">
            <mxPoint x="-11" y="13" as="offset" />
          </mxGeometry>
        </mxCell>
        <mxCell id="rjWYwIjSMc28cupWhfTH-103" style="rounded=0;orthogonalLoop=1;jettySize=auto;html=1;exitX=0;exitY=0;exitDx=0;exitDy=0;entryX=1;entryY=0;entryDx=0;entryDy=0;curved=1;" edge="1" parent="1" source="rjWYwIjSMc28cupWhfTH-98" target="rjWYwIjSMc28cupWhfTH-98">
          <mxGeometry relative="1" as="geometry">
            <Array as="points">
              <mxPoint x="940" y="34" />
            </Array>
          </mxGeometry>
        </mxCell>
        <mxCell id="rjWYwIjSMc28cupWhfTH-104" value="1" style="edgeLabel;html=1;align=center;verticalAlign=middle;resizable=0;points=[];" vertex="1" connectable="0" parent="rjWYwIjSMc28cupWhfTH-103">
          <mxGeometry x="0.432" y="-13" relative="1" as="geometry">
            <mxPoint as="offset" />
          </mxGeometry>
        </mxCell>
        <mxCell id="rjWYwIjSMc28cupWhfTH-107" style="rounded=0;orthogonalLoop=1;jettySize=auto;html=1;exitX=0;exitY=0;exitDx=0;exitDy=0;entryX=0.929;entryY=0.767;entryDx=0;entryDy=0;entryPerimeter=0;" edge="1" parent="1" source="rjWYwIjSMc28cupWhfTH-72" target="rjWYwIjSMc28cupWhfTH-85">
          <mxGeometry relative="1" as="geometry" />
        </mxCell>
        <mxCell id="rjWYwIjSMc28cupWhfTH-108" value="[23]" style="edgeLabel;html=1;align=center;verticalAlign=middle;resizable=0;points=[];" vertex="1" connectable="0" parent="rjWYwIjSMc28cupWhfTH-107">
          <mxGeometry x="-0.4717" y="1" relative="1" as="geometry">
            <mxPoint y="-3" as="offset" />
          </mxGeometry>
        </mxCell>
        <mxCell id="rjWYwIjSMc28cupWhfTH-110" value="q7" style="ellipse;whiteSpace=wrap;html=1;aspect=fixed;" vertex="1" parent="1">
          <mxGeometry x="905" y="99" width="70" height="70" as="geometry" />
        </mxCell>
        <mxCell id="rjWYwIjSMc28cupWhfTH-117" value="q9" style="ellipse;whiteSpace=wrap;html=1;aspect=fixed;" vertex="1" parent="1">
          <mxGeometry x="655" y="463" width="70" height="70" as="geometry" />
        </mxCell>
        <mxCell id="rjWYwIjSMc28cupWhfTH-120" style="edgeStyle=orthogonalEdgeStyle;rounded=0;orthogonalLoop=1;jettySize=auto;html=1;" edge="1" parent="1" source="rjWYwIjSMc28cupWhfTH-118" target="rjWYwIjSMc28cupWhfTH-82">
          <mxGeometry relative="1" as="geometry" />
        </mxCell>
        <mxCell id="rjWYwIjSMc28cupWhfTH-118" value="q11" style="ellipse;whiteSpace=wrap;html=1;aspect=fixed;" vertex="1" parent="1">
          <mxGeometry x="770" y="334" width="80" height="80" as="geometry" />
        </mxCell>
        <mxCell id="rjWYwIjSMc28cupWhfTH-122" style="rounded=0;orthogonalLoop=1;jettySize=auto;html=1;exitX=0;exitY=0;exitDx=0;exitDy=0;entryX=1;entryY=0;entryDx=0;entryDy=0;curved=1;" edge="1" parent="1" source="rjWYwIjSMc28cupWhfTH-118" target="rjWYwIjSMc28cupWhfTH-118">
          <mxGeometry relative="1" as="geometry">
            <Array as="points">
              <mxPoint x="810" y="284" />
            </Array>
          </mxGeometry>
        </mxCell>
        <mxCell id="rjWYwIjSMc28cupWhfTH-123" value="[13" style="edgeLabel;html=1;align=center;verticalAlign=middle;resizable=0;points=[];" vertex="1" connectable="0" parent="rjWYwIjSMc28cupWhfTH-122">
          <mxGeometry x="-0.383" y="-12" relative="1" as="geometry">
            <mxPoint as="offset" />
          </mxGeometry>
        </mxCell>
        <mxCell id="rjWYwIjSMc28cupWhfTH-125" value="" style="group" vertex="1" connectable="0" parent="1">
          <mxGeometry x="900" y="334" width="80" height="80" as="geometry" />
        </mxCell>
        <mxCell id="rjWYwIjSMc28cupWhfTH-126" value="" style="ellipse;whiteSpace=wrap;html=1;aspect=fixed;" vertex="1" parent="rjWYwIjSMc28cupWhfTH-125">
          <mxGeometry width="80" height="80" as="geometry" />
        </mxCell>
        <mxCell id="rjWYwIjSMc28cupWhfTH-127" value="q13" style="ellipse;whiteSpace=wrap;html=1;aspect=fixed;" vertex="1" parent="rjWYwIjSMc28cupWhfTH-125">
          <mxGeometry x="5" y="5" width="70" height="70" as="geometry" />
        </mxCell>
        <mxCell id="rjWYwIjSMc28cupWhfTH-142" style="rounded=0;orthogonalLoop=1;jettySize=auto;html=1;exitX=0;exitY=0;exitDx=0;exitDy=0;entryX=1;entryY=0;entryDx=0;entryDy=0;curved=1;" edge="1" parent="rjWYwIjSMc28cupWhfTH-125" source="rjWYwIjSMc28cupWhfTH-126" target="rjWYwIjSMc28cupWhfTH-126">
          <mxGeometry relative="1" as="geometry">
            <Array as="points">
              <mxPoint x="40" y="-50" />
            </Array>
          </mxGeometry>
        </mxCell>
        <mxCell id="rjWYwIjSMc28cupWhfTH-143" value="2" style="edgeLabel;html=1;align=center;verticalAlign=middle;resizable=0;points=[];" vertex="1" connectable="0" parent="rjWYwIjSMc28cupWhfTH-142">
          <mxGeometry x="0.4011" y="-11" relative="1" as="geometry">
            <mxPoint as="offset" />
          </mxGeometry>
        </mxCell>
        <mxCell id="rjWYwIjSMc28cupWhfTH-130" value="" style="group" vertex="1" connectable="0" parent="1">
          <mxGeometry x="900" y="458" width="80" height="80" as="geometry" />
        </mxCell>
        <mxCell id="rjWYwIjSMc28cupWhfTH-131" value="" style="ellipse;whiteSpace=wrap;html=1;aspect=fixed;" vertex="1" parent="rjWYwIjSMc28cupWhfTH-130">
          <mxGeometry width="80" height="80" as="geometry" />
        </mxCell>
        <mxCell id="rjWYwIjSMc28cupWhfTH-132" value="q12" style="ellipse;whiteSpace=wrap;html=1;aspect=fixed;" vertex="1" parent="rjWYwIjSMc28cupWhfTH-130">
          <mxGeometry x="5" y="5" width="70" height="70" as="geometry" />
        </mxCell>
        <mxCell id="rjWYwIjSMc28cupWhfTH-134" style="rounded=0;orthogonalLoop=1;jettySize=auto;html=1;exitX=1;exitY=0;exitDx=0;exitDy=0;entryX=0.066;entryY=0.829;entryDx=0;entryDy=0;entryPerimeter=0;" edge="1" parent="1" source="rjWYwIjSMc28cupWhfTH-82" target="rjWYwIjSMc28cupWhfTH-127">
          <mxGeometry relative="1" as="geometry" />
        </mxCell>
        <mxCell id="rjWYwIjSMc28cupWhfTH-136" value="2" style="edgeLabel;html=1;align=center;verticalAlign=middle;resizable=0;points=[];" vertex="1" connectable="0" parent="rjWYwIjSMc28cupWhfTH-134">
          <mxGeometry x="-0.3332" y="-1" relative="1" as="geometry">
            <mxPoint as="offset" />
          </mxGeometry>
        </mxCell>
        <mxCell id="rjWYwIjSMc28cupWhfTH-135" style="rounded=0;orthogonalLoop=1;jettySize=auto;html=1;exitX=0;exitY=0;exitDx=0;exitDy=0;entryX=0.95;entryY=0.753;entryDx=0;entryDy=0;entryPerimeter=0;" edge="1" parent="1" source="rjWYwIjSMc28cupWhfTH-131" target="rjWYwIjSMc28cupWhfTH-118">
          <mxGeometry relative="1" as="geometry" />
        </mxCell>
        <mxCell id="rjWYwIjSMc28cupWhfTH-140" value="[13]" style="edgeLabel;html=1;align=center;verticalAlign=middle;resizable=0;points=[];" vertex="1" connectable="0" parent="rjWYwIjSMc28cupWhfTH-135">
          <mxGeometry x="-0.347" y="-1" relative="1" as="geometry">
            <mxPoint as="offset" />
          </mxGeometry>
        </mxCell>
        <mxCell id="rjWYwIjSMc28cupWhfTH-138" style="edgeStyle=orthogonalEdgeStyle;rounded=0;orthogonalLoop=1;jettySize=auto;html=1;exitX=0.5;exitY=1;exitDx=0;exitDy=0;entryX=0.5;entryY=0;entryDx=0;entryDy=0;" edge="1" parent="1" source="rjWYwIjSMc28cupWhfTH-126" target="rjWYwIjSMc28cupWhfTH-131">
          <mxGeometry relative="1" as="geometry" />
        </mxCell>
        <mxCell id="rjWYwIjSMc28cupWhfTH-139" value="[13]" style="edgeLabel;html=1;align=center;verticalAlign=middle;resizable=0;points=[];" vertex="1" connectable="0" parent="rjWYwIjSMc28cupWhfTH-138">
          <mxGeometry x="-0.1182" y="1" relative="1" as="geometry">
            <mxPoint as="offset" />
          </mxGeometry>
        </mxCell>
        <mxCell id="rjWYwIjSMc28cupWhfTH-144" style="rounded=0;orthogonalLoop=1;jettySize=auto;html=1;exitX=0;exitY=1;exitDx=0;exitDy=0;entryX=1;entryY=1;entryDx=0;entryDy=0;curved=1;" edge="1" parent="1" source="rjWYwIjSMc28cupWhfTH-131" target="rjWYwIjSMc28cupWhfTH-82">
          <mxGeometry relative="1" as="geometry">
            <Array as="points">
              <mxPoint x="880" y="544" />
            </Array>
          </mxGeometry>
        </mxCell>
        <mxCell id="rjWYwIjSMc28cupWhfTH-145" value="2" style="edgeLabel;html=1;align=center;verticalAlign=middle;resizable=0;points=[];" vertex="1" connectable="0" parent="rjWYwIjSMc28cupWhfTH-144">
          <mxGeometry x="0.0676" y="-6" relative="1" as="geometry">
            <mxPoint as="offset" />
          </mxGeometry>
        </mxCell>
        <mxCell id="rjWYwIjSMc28cupWhfTH-164" style="edgeStyle=orthogonalEdgeStyle;rounded=0;orthogonalLoop=1;jettySize=auto;html=1;entryX=0;entryY=0.5;entryDx=0;entryDy=0;" edge="1" parent="1" source="rjWYwIjSMc28cupWhfTH-148" target="rjWYwIjSMc28cupWhfTH-155">
          <mxGeometry relative="1" as="geometry" />
        </mxCell>
        <mxCell id="rjWYwIjSMc28cupWhfTH-165" value="[12]" style="edgeLabel;html=1;align=center;verticalAlign=middle;resizable=0;points=[];" vertex="1" connectable="0" parent="rjWYwIjSMc28cupWhfTH-164">
          <mxGeometry x="-0.072" y="-1" relative="1" as="geometry">
            <mxPoint as="offset" />
          </mxGeometry>
        </mxCell>
        <mxCell id="rjWYwIjSMc28cupWhfTH-168" style="rounded=0;orthogonalLoop=1;jettySize=auto;html=1;exitX=1;exitY=0;exitDx=0;exitDy=0;entryX=0;entryY=1;entryDx=0;entryDy=0;" edge="1" parent="1" source="rjWYwIjSMc28cupWhfTH-148" target="rjWYwIjSMc28cupWhfTH-152">
          <mxGeometry relative="1" as="geometry" />
        </mxCell>
        <mxCell id="rjWYwIjSMc28cupWhfTH-170" value="3" style="edgeLabel;html=1;align=center;verticalAlign=middle;resizable=0;points=[];" vertex="1" connectable="0" parent="rjWYwIjSMc28cupWhfTH-168">
          <mxGeometry x="-0.6102" y="2" relative="1" as="geometry">
            <mxPoint y="1" as="offset" />
          </mxGeometry>
        </mxCell>
        <mxCell id="rjWYwIjSMc28cupWhfTH-148" value="q16" style="ellipse;whiteSpace=wrap;html=1;aspect=fixed;" vertex="1" parent="1">
          <mxGeometry x="770" y="704" width="80" height="80" as="geometry" />
        </mxCell>
        <mxCell id="rjWYwIjSMc28cupWhfTH-149" value="" style="group" vertex="1" connectable="0" parent="1">
          <mxGeometry x="650" y="704" width="80" height="80" as="geometry" />
        </mxCell>
        <mxCell id="rjWYwIjSMc28cupWhfTH-43" value="" style="ellipse;whiteSpace=wrap;html=1;aspect=fixed;" vertex="1" parent="rjWYwIjSMc28cupWhfTH-149">
          <mxGeometry width="80" height="80" as="geometry" />
        </mxCell>
        <mxCell id="rjWYwIjSMc28cupWhfTH-146" value="q15" style="ellipse;whiteSpace=wrap;html=1;aspect=fixed;" vertex="1" parent="rjWYwIjSMc28cupWhfTH-149">
          <mxGeometry x="5" y="5" width="70" height="70" as="geometry" />
        </mxCell>
        <mxCell id="rjWYwIjSMc28cupWhfTH-166" style="edgeStyle=orthogonalEdgeStyle;rounded=0;orthogonalLoop=1;jettySize=auto;html=1;entryX=0.5;entryY=0;entryDx=0;entryDy=0;" edge="1" parent="1" source="rjWYwIjSMc28cupWhfTH-150" target="rjWYwIjSMc28cupWhfTH-148">
          <mxGeometry relative="1" as="geometry" />
        </mxCell>
        <mxCell id="rjWYwIjSMc28cupWhfTH-167" value="3" style="edgeLabel;html=1;align=center;verticalAlign=middle;resizable=0;points=[];" vertex="1" connectable="0" parent="rjWYwIjSMc28cupWhfTH-166">
          <mxGeometry x="-0.17" relative="1" as="geometry">
            <mxPoint as="offset" />
          </mxGeometry>
        </mxCell>
        <mxCell id="rjWYwIjSMc28cupWhfTH-150" value="q17" style="ellipse;whiteSpace=wrap;html=1;aspect=fixed;" vertex="1" parent="1">
          <mxGeometry x="770" y="584" width="80" height="80" as="geometry" />
        </mxCell>
        <mxCell id="rjWYwIjSMc28cupWhfTH-151" value="" style="group" vertex="1" connectable="0" parent="1">
          <mxGeometry x="900" y="584" width="80" height="80" as="geometry" />
        </mxCell>
        <mxCell id="rjWYwIjSMc28cupWhfTH-152" value="" style="ellipse;whiteSpace=wrap;html=1;aspect=fixed;" vertex="1" parent="rjWYwIjSMc28cupWhfTH-151">
          <mxGeometry width="80" height="80" as="geometry" />
        </mxCell>
        <mxCell id="rjWYwIjSMc28cupWhfTH-153" value="q19" style="ellipse;whiteSpace=wrap;html=1;aspect=fixed;" vertex="1" parent="rjWYwIjSMc28cupWhfTH-151">
          <mxGeometry x="5" y="5" width="70" height="70" as="geometry" />
        </mxCell>
        <mxCell id="rjWYwIjSMc28cupWhfTH-172" style="rounded=0;orthogonalLoop=1;jettySize=auto;html=1;exitX=0;exitY=0;exitDx=0;exitDy=0;entryX=1;entryY=0;entryDx=0;entryDy=0;curved=1;" edge="1" parent="rjWYwIjSMc28cupWhfTH-151" source="rjWYwIjSMc28cupWhfTH-152" target="rjWYwIjSMc28cupWhfTH-152">
          <mxGeometry relative="1" as="geometry">
            <Array as="points">
              <mxPoint x="40" y="-50" />
            </Array>
          </mxGeometry>
        </mxCell>
        <mxCell id="rjWYwIjSMc28cupWhfTH-173" value="3" style="edgeLabel;html=1;align=center;verticalAlign=middle;resizable=0;points=[];" vertex="1" connectable="0" parent="rjWYwIjSMc28cupWhfTH-172">
          <mxGeometry x="-0.4064" y="-11" relative="1" as="geometry">
            <mxPoint as="offset" />
          </mxGeometry>
        </mxCell>
        <mxCell id="rjWYwIjSMc28cupWhfTH-154" value="" style="group" vertex="1" connectable="0" parent="1">
          <mxGeometry x="900" y="704" width="80" height="80" as="geometry" />
        </mxCell>
        <mxCell id="rjWYwIjSMc28cupWhfTH-155" value="" style="ellipse;whiteSpace=wrap;html=1;aspect=fixed;" vertex="1" parent="rjWYwIjSMc28cupWhfTH-154">
          <mxGeometry width="80" height="80" as="geometry" />
        </mxCell>
        <mxCell id="rjWYwIjSMc28cupWhfTH-156" value="q18" style="ellipse;whiteSpace=wrap;html=1;aspect=fixed;" vertex="1" parent="rjWYwIjSMc28cupWhfTH-154">
          <mxGeometry x="5" y="5" width="70" height="70" as="geometry" />
        </mxCell>
        <mxCell id="rjWYwIjSMc28cupWhfTH-158" style="edgeStyle=orthogonalEdgeStyle;rounded=0;orthogonalLoop=1;jettySize=auto;html=1;entryX=0;entryY=0.5;entryDx=0;entryDy=0;" edge="1" parent="1" source="rjWYwIjSMc28cupWhfTH-43" target="rjWYwIjSMc28cupWhfTH-148">
          <mxGeometry relative="1" as="geometry" />
        </mxCell>
        <mxCell id="rjWYwIjSMc28cupWhfTH-159" value="3" style="edgeLabel;html=1;align=center;verticalAlign=middle;resizable=0;points=[];" vertex="1" connectable="0" parent="rjWYwIjSMc28cupWhfTH-158">
          <mxGeometry x="-0.08" y="-2" relative="1" as="geometry">
            <mxPoint as="offset" />
          </mxGeometry>
        </mxCell>
        <mxCell id="rjWYwIjSMc28cupWhfTH-160" style="rounded=0;orthogonalLoop=1;jettySize=auto;html=1;exitX=1;exitY=0;exitDx=0;exitDy=0;entryX=0;entryY=1;entryDx=0;entryDy=0;" edge="1" parent="1" source="rjWYwIjSMc28cupWhfTH-43" target="rjWYwIjSMc28cupWhfTH-150">
          <mxGeometry relative="1" as="geometry" />
        </mxCell>
        <mxCell id="rjWYwIjSMc28cupWhfTH-161" value="[12]" style="edgeLabel;html=1;align=center;verticalAlign=middle;resizable=0;points=[];" vertex="1" connectable="0" parent="rjWYwIjSMc28cupWhfTH-160">
          <mxGeometry x="-0.0473" relative="1" as="geometry">
            <mxPoint as="offset" />
          </mxGeometry>
        </mxCell>
        <mxCell id="rjWYwIjSMc28cupWhfTH-162" style="rounded=0;orthogonalLoop=1;jettySize=auto;html=1;exitX=0;exitY=0;exitDx=0;exitDy=0;entryX=1;entryY=0;entryDx=0;entryDy=0;curved=1;" edge="1" parent="1" source="rjWYwIjSMc28cupWhfTH-150" target="rjWYwIjSMc28cupWhfTH-150">
          <mxGeometry relative="1" as="geometry">
            <Array as="points">
              <mxPoint x="810" y="534" />
            </Array>
          </mxGeometry>
        </mxCell>
        <mxCell id="rjWYwIjSMc28cupWhfTH-163" value="[12]" style="edgeLabel;html=1;align=center;verticalAlign=middle;resizable=0;points=[];" vertex="1" connectable="0" parent="rjWYwIjSMc28cupWhfTH-162">
          <mxGeometry x="-0.399" y="-12" relative="1" as="geometry">
            <mxPoint as="offset" />
          </mxGeometry>
        </mxCell>
        <mxCell id="rjWYwIjSMc28cupWhfTH-169" style="rounded=0;orthogonalLoop=1;jettySize=auto;html=1;exitX=0;exitY=0;exitDx=0;exitDy=0;entryX=1;entryY=1;entryDx=0;entryDy=0;" edge="1" parent="1" source="rjWYwIjSMc28cupWhfTH-155" target="rjWYwIjSMc28cupWhfTH-150">
          <mxGeometry relative="1" as="geometry" />
        </mxCell>
        <mxCell id="rjWYwIjSMc28cupWhfTH-171" value="[12]" style="edgeLabel;html=1;align=center;verticalAlign=middle;resizable=0;points=[];" vertex="1" connectable="0" parent="rjWYwIjSMc28cupWhfTH-169">
          <mxGeometry x="-0.4769" y="-2" relative="1" as="geometry">
            <mxPoint y="7" as="offset" />
          </mxGeometry>
        </mxCell>
        <mxCell id="rjWYwIjSMc28cupWhfTH-175" style="edgeStyle=orthogonalEdgeStyle;rounded=0;orthogonalLoop=1;jettySize=auto;html=1;exitX=0.5;exitY=1;exitDx=0;exitDy=0;entryX=0.5;entryY=0;entryDx=0;entryDy=0;" edge="1" parent="1" source="rjWYwIjSMc28cupWhfTH-152" target="rjWYwIjSMc28cupWhfTH-155">
          <mxGeometry relative="1" as="geometry" />
        </mxCell>
        <mxCell id="rjWYwIjSMc28cupWhfTH-176" value="[12]" style="edgeLabel;html=1;align=center;verticalAlign=middle;resizable=0;points=[];" vertex="1" connectable="0" parent="rjWYwIjSMc28cupWhfTH-175">
          <mxGeometry x="-0.13" relative="1" as="geometry">
            <mxPoint as="offset" />
          </mxGeometry>
        </mxCell>
        <mxCell id="rjWYwIjSMc28cupWhfTH-177" style="rounded=0;orthogonalLoop=1;jettySize=auto;html=1;exitX=0;exitY=1;exitDx=0;exitDy=0;entryX=1;entryY=1;entryDx=0;entryDy=0;curved=1;" edge="1" parent="1" source="rjWYwIjSMc28cupWhfTH-155" target="rjWYwIjSMc28cupWhfTH-148">
          <mxGeometry relative="1" as="geometry">
            <Array as="points">
              <mxPoint x="880" y="794" />
            </Array>
          </mxGeometry>
        </mxCell>
        <mxCell id="rjWYwIjSMc28cupWhfTH-178" value="3" style="edgeLabel;html=1;align=center;verticalAlign=middle;resizable=0;points=[];" vertex="1" connectable="0" parent="rjWYwIjSMc28cupWhfTH-177">
          <mxGeometry x="0.0844" y="-7" relative="1" as="geometry">
            <mxPoint as="offset" />
          </mxGeometry>
        </mxCell>
      </root>
    </mxGraphModel>
  </diagram>
</mxfile>
